<svg xmlns="http://www.w3.org/2000/svg" xmlns:xlink="http://www.w3.org/1999/xlink" id="Layer_1" width="262" height="32.436" x="0" y="0" enable-background="new 0 0 262 32.436" version="1.1" viewBox="0 0 262 32.436" xml:space="preserve"><g><path fill="#60B6FF" d="M11.02,17.213c0,10.576,2.875,13.807,6.062,14.205v1.018C7.834,32.436,0,27.259,0,17.213 C0,6.549,9.604,2.168,17.082,2.168v1.062C13.762,3.983,11.02,6.637,11.02,17.213z"/><path fill="#60B6FF" d="M27.746,13.496h-1.105c-1.328-3.85-3.496-8.54-7.436-10.266V2.168c2.699,0,6.859,1.106,8.541,1.727V13.496z"/><path fill="#60B6FF" d="M27.746,20.135h-1.105c-1.506,4.248-3.32,9.381-7.436,11.283v1.018c2.699,0,6.506-0.929,8.541-1.902V20.135 z"/><path fill="#60B6FF" d="M42.834,10.133v1.019c-2.434,0.575-2.654,2.61-2.654,10.134c0,7.699,0.221,9.602,2.832,10.133v1.018 C37.17,32.303,31.24,29.294,31.24,21.727C31.24,14.16,37.037,10.222,42.834,10.133z"/><path fill="#60B6FF" d="M44.34,32.436v-1.018c2.434-0.575,2.654-2.61,2.654-10.133c0-7.7-0.221-9.604-2.832-10.134v-1.019 c5.842,0.133,11.771,3.143,11.771,10.709C55.934,28.409,50.137,32.348,44.34,32.436z"/><path fill="#60B6FF" d="M68.588,27.922c0,1.903,0.309,2.611,1.902,2.832v1.062H57.525v-1.062c2.389-0.266,2.389-1.062,2.389-3.938 V15.489c0-0.975-0.221-1.373-1.15-1.903l-0.93-0.531v-0.929l9.869-1.947l0.885,0.531V27.922z"/><path fill="#60B6FF" d="M82.793,27.922c0,1.903,0.309,2.611,1.902,2.832v1.062H72.217v-1.062c1.592-0.221,1.902-0.929,1.902-2.832 V16.55c0-1.549-0.752-2.257-2.301-2.257c-0.842,0-1.373,0.221-1.904,0.486v-0.84c1.506-1.992,3.984-3.807,7.125-3.807 c4.16,0,5.754,2.302,5.754,5.531V27.922z"/><path fill="#60B6FF" d="M96.996,26.817c0,2.876,0.045,3.672,2.434,3.938v1.062H86.42v-1.062c1.594-0.221,1.904-0.929,1.904-2.832 V16.55c0-1.549-0.754-2.257-2.303-2.257c-0.84,0-1.459,0.221-1.99,0.486v-0.84c1.504-1.992,4.07-3.807,7.213-3.807 c4.16,0,5.752,2.302,5.752,5.531V26.817z"/><path fill="#60B6FF" d="M111.553,27.922c0,1.903,0.311,2.611,1.904,2.832v1.062H100.49v-1.062c2.391-0.266,2.391-1.062,2.391-3.938 V15.489c0-0.975-0.223-1.373-1.15-1.903l-0.93-0.531v-0.929l9.867-1.947l0.885,0.531V27.922z"/><path fill="#60B6FF" d="M125.758,27.922c0,1.903,0.311,2.611,1.902,2.832v1.062h-12.479v-1.062 c1.594-0.221,1.904-0.929,1.904-2.832V16.55c0-1.549-0.754-2.257-2.303-2.257c-0.84,0-1.371,0.221-1.902,0.486v-0.84 c1.504-1.992,3.982-3.807,7.125-3.807c4.16,0,5.752,2.302,5.752,5.531V27.922z"/><path fill="#60B6FF" d="M139.963,26.817c0,2.876,0.045,3.672,2.434,3.938v1.062h-13.01v-1.062c1.594-0.221,1.902-0.929,1.902-2.832 V16.55c0-1.549-0.752-2.257-2.301-2.257c-0.84,0-1.461,0.221-1.99,0.486v-0.84c1.504-1.992,4.07-3.807,7.213-3.807 c4.158,0,5.752,2.302,5.752,5.531V26.817z"/><path fill="#60B6FF" d="M153.945,11.196c-1.416,0.486-2.213,2.257-2.213,6.107c0,6.77,2.256,8.717,6.195,8.717 c2.742,0,4.779-1.106,5.93-2.213l0.707,0.62c-1.504,4.513-4.602,8.009-10.221,8.009c-5.932,0-10.799-3.672-10.799-10.443 c0-7.832,6.328-11.594,10.4-11.814V11.196z"/><path fill="#60B6FF" d="M153.061,18.895v-0.973l3.85-0.885c0-4.868-0.398-5.399-1.639-5.842v-1.018 c5.842,0.221,9.117,4.115,9.117,8.717H153.061z"/><path fill="#60B6FF" d="M177.131,26.817c0,2.876,0.443,3.672,2.832,3.938v1.062h-13.895v-1.062 c2.389-0.266,2.389-1.062,2.389-3.938V15.489c0-0.975-0.221-1.373-1.15-1.903l-0.93-0.531v-0.929l9.869-1.947l0.885,0.531V26.817z"/><path fill="#60B6FF" d="M182.662,10.133c2.521,0,4.381,1.947,4.381,4.248c0,2.213-1.947,4.205-4.381,4.205 s-4.426-1.992-4.426-4.205C178.236,12.08,180.141,10.133,182.662,10.133z"/><path fill="#60B6FF" d="M199.123,11.108c-1.682,0.574-3.186,2.035-3.186,6.77c0,5.355,2.832,7.611,6.326,7.611 c2.568,0,4.25-0.93,5.268-1.902l0.707,0.619c-0.441,1.461-1.371,3.496-3.273,5.443c-1.639,1.682-3.719,2.787-6.816,2.787 c-6.105,0-10.486-3.894-10.486-10.443c0-3.761,1.416-6.77,3.85-8.762c2.389-1.99,5.354-2.92,7.434-3.098L199.123,11.108z"/><path fill="#60B6FF" d="M203.416,10.133c2.389,0,4.115,1.771,4.115,4.027c0,2.08-1.814,3.895-4.115,3.895 c-2.258,0-4.117-1.814-4.117-3.895C199.299,11.904,201.07,10.133,203.416,10.133z"/><path fill="#60B6FF" d="M209.299,31.817v-1.062c2.391-0.266,2.391-1.062,2.391-3.938V15.489c0-0.975-0.221-1.373-1.15-1.903 l-0.93-0.531v-0.929l9.867-1.947l0.887,0.531v16.107c0,2.876,0,3.672,2.389,3.938v1.062H209.299z"/><path fill="#60B6FF" d="M216.07,0.443c2.92,0,4.557,2.036,4.557,4.337c0,2.256-1.725,4.336-4.557,4.336 c-2.922,0-4.602-2.08-4.602-4.336C211.469,2.479,213.061,0.443,216.07,0.443z"/><path fill="#60B6FF" d="M235.053,28.586c-0.885,1.992-1.99,3.85-5.133,3.85c-2.965,0-5.842-1.726-5.842-5.486 c0-1.992,0.842-3.452,1.902-4.248c1.328-0.443,6.418-1.638,8.762-2.258v0.842c-1.371,0.707-1.945,1.593-1.945,4.026 c0,1.062,0.176,2.522,1.504,2.478c0.221,0,0.531-0.043,0.752-0.176V28.586z"/><path fill="#60B6FF" d="M232.574,16.417c0,1.903-1.592,3.495-3.539,3.495c-1.859,0-3.453-1.592-3.453-3.495s1.594-3.54,3.453-3.54 C230.982,12.877,232.574,14.514,232.574,16.417z"/><path fill="#60B6FF" d="M230.627,11.904c1.771-0.974,4.559-1.771,6.947-1.771c3.496,0,7.215,1.859,7.215,6.151v10.532 c0,1.062,0.885,1.46,1.68,1.46c0.443,0,0.887-0.266,1.195-0.53v1.238c-1.195,2.035-3.451,3.451-6.283,3.451 c-3.23,0-5.266-2.123-5.266-5v-9.779c0-4.115-1.328-4.514-5.355-5.222L230.627,11.904z"/><path fill="#60B6FF" d="M248.549,31.817v-1.062c2.389-0.266,2.389-1.062,2.389-3.938V5.311c0-0.975-0.221-1.373-1.15-1.903 l-0.93-0.531V1.948L258.727,0l0.885,0.531v26.285c0,2.876,0,3.672,2.389,3.938v1.062H248.549z"/></g></svg>