<svg xmlns="http://www.w3.org/2000/svg" xmlns:xlink="http://www.w3.org/1999/xlink" id="Layer_1" width="282" height="88" x="0" y="0" enable-background="new 0 0 282 88" version="1.1" viewBox="0 0 282 88" xml:space="preserve"><rect width="57.6" height="56.158" x="16.957" y="15.521" fill="#95C11F" fill-rule="evenodd" clip-rule="evenodd"/><polygon fill="#FFF" fill-rule="evenodd" points="56.437 26.432 61.237 31.364 61.237 39.649 52.957 39.649 52.957 60.768 42.892 60.768 38.437 56.478 38.437 56.401 38.437 39.649 34.367 39.649 30.416 34.729 40.117 34.729 40.117 55.85 48.396 55.85 48.396 34.729 56.437 34.729" clip-rule="evenodd"/><g><path d="M91.027,47.875l-2.924,8.057c-0.034,0.136-0.103,0.17-0.204,0.17h-1.292c-0.136,0-0.17-0.068-0.136-0.204l7.819-21.316 c0.067-0.204,0.136-0.34,0.17-0.952c0-0.068,0.067-0.136,0.135-0.136h1.972c0.136,0,0.17,0.034,0.204,0.136l8.125,22.268 c0.035,0.136,0,0.204-0.136,0.204h-1.394c-0.102,0-0.171-0.034-0.204-0.136l-2.958-8.091H91.027z M99.73,46.345 c-0.782-2.21-3.434-9.383-4.08-11.593h-0.034c-0.611,2.142-2.481,7.173-4.079,11.593H99.73z"/><path d="M105.987,48.079c0-5.032,3.808-8.567,8.908-8.567c1.326,0,2.04,0.102,2.788,0.272v-8.057c0-0.136,0.033-0.17,0.17-0.17 h1.292c0.169,0,0.169,0.034,0.169,0.17v22.268c0,0.272,0,0.578,0.033,1.054c0,0.102-0.033,0.136-0.136,0.204 c-1.666,0.85-3.331,1.19-5.1,1.19C109.557,56.442,105.987,53.586,105.987,48.079z M117.683,41.45 c-0.681-0.34-1.7-0.476-2.856-0.476c-4.691,0-7.173,3.264-7.173,7.003c0,5.099,3.331,6.969,6.595,6.969 c1.088,0,2.482-0.136,3.435-0.578V41.45z"/><path d="M137.164,47.977c0,5.031-2.991,8.465-7.343,8.465c-5.235,0-7.479-4.454-7.479-8.465c0-4.828,3.025-8.465,7.445-8.465 C134.173,39.512,137.164,42.877,137.164,47.977z M123.974,47.909c0,3.74,2.107,7.038,5.949,7.038c2.652,0,5.61-2.04,5.61-6.936 c0-3.501-1.666-7.037-5.847-7.037C126.285,40.974,123.974,43.829,123.974,47.909z"/><path d="M141.686,31.557c0.103,0,0.171,0,0.171,0.136v8.669c1.224-0.544,2.583-0.85,4.181-0.85c4.522,0,7.514,3.229,7.514,7.853 c0,5.95-4.386,9.077-8.941,9.077c-1.632,0-2.889-0.204-4.214-0.646c-0.103-0.034-0.17-0.136-0.17-0.272V31.692 c0-0.102,0.067-0.136,0.204-0.136H141.686z M145.867,40.974c-1.733,0-2.923,0.306-4.011,0.816v12.817 c0.815,0.238,1.632,0.374,2.855,0.374c3.739,0,7.207-2.549,7.207-7.513C151.919,43.728,149.675,40.974,145.867,40.974z"/><path d="M157.903,47.705c-0.17,4.113,2.006,7.207,6.222,7.207c1.462,0,2.924-0.238,4.25-0.952c0.102-0.068,0.169-0.034,0.169,0.102 v1.122c0,0.136-0.033,0.204-0.136,0.238c-1.02,0.578-2.516,1.02-4.521,1.02c-5.541,0-7.615-4.25-7.615-8.363 c0-4.794,2.754-8.567,7.071-8.567c4.691,0,6.289,3.875,6.289,6.459c0,0.748-0.033,1.156-0.102,1.428 c0,0.102-0.102,0.204-0.238,0.204c-0.509,0.068-2.176,0.102-3.501,0.102H157.903z M165.484,46.379c2.074,0,2.414-0.034,2.516-0.068 c0.034-0.102,0.034-0.34,0.034-0.442c0-1.496-0.884-4.93-4.726-4.93c-3.263,0-4.963,2.618-5.337,5.439H165.484z"/><path d="M185.987,35.024h-7.684c-0.102,0-0.17-0.034-0.136-0.204l0.271-1.156c0.035-0.102,0.068-0.17,0.204-0.17h16.387 c0.136,0,0.17,0.034,0.204,0.17l0.17,1.156c0.034,0.136,0,0.204-0.136,0.204h-7.649v20.874c0,0.136-0.068,0.204-0.204,0.204h-1.224 c-0.137,0-0.204-0.034-0.204-0.204V35.024z"/><path d="M195.406,39.818c0.068,0,0.102,0.034,0.17,0.136c3.365,8.567,4.997,12.613,5.474,14.007 c1.088-2.822,2.754-7.14,5.337-14.007c0.034-0.068,0.068-0.136,0.204-0.136h1.292c0.136,0,0.17,0.102,0.136,0.204 c-2.583,7.241-5.915,15.502-9.621,23.73c-0.033,0.102-0.17,0.17-0.306,0.17l-1.394,0.136c-0.136,0-0.136-0.102-0.103-0.204 c1.021-2.108,2.38-5.202,3.57-7.956c0.033-0.102,0.033-0.204-0.034-0.374c-0.748-1.835-4.25-10.267-6.357-15.536 c-0.034-0.102,0-0.17,0.102-0.17H195.406z"/><path d="M224.271,47.331c0,6.153-4.794,9.111-9.349,9.111c-1.156,0-1.769-0.102-2.38-0.204v7.445c0,0.102,0,0.17-0.136,0.204 c-0.34,0.034-1.259,0.17-1.326,0.17c-0.103,0-0.136,0-0.136-0.136V41.959c0-0.204-0.034-0.612-0.103-1.02 c0-0.034,0-0.102,0.103-0.136c0.781-0.34,2.923-1.292,5.711-1.292C221.177,39.512,224.271,42.571,224.271,47.331z M212.542,41.722 v12.986c0.748,0.204,1.563,0.238,2.481,0.238c3.876,0,7.581-2.482,7.581-7.479c0-3.875-2.243-6.493-6.221-6.493 C214.989,40.974,213.63,41.246,212.542,41.722z"/><path d="M228.59,47.705c-0.169,4.113,2.006,7.207,6.222,7.207c1.461,0,2.923-0.238,4.249-0.952c0.103-0.068,0.17-0.034,0.17,0.102 v1.122c0,0.136-0.033,0.204-0.135,0.238c-1.02,0.578-2.516,1.02-4.522,1.02c-5.541,0-7.615-4.25-7.615-8.363 c0-4.794,2.754-8.567,7.071-8.567c4.691,0,6.289,3.875,6.289,6.459c0,0.748-0.033,1.156-0.102,1.428 c0,0.102-0.102,0.204-0.238,0.204c-0.509,0.068-2.175,0.102-3.501,0.102H228.59z M236.171,46.379c2.074,0,2.414-0.034,2.516-0.068 c0.034-0.102,0.034-0.34,0.034-0.442c0-1.496-0.884-4.93-4.726-4.93c-3.264,0-4.962,2.618-5.337,5.439H236.171z"/><path d="M245.454,55.932c0,0.136-0.034,0.17-0.136,0.17h-1.326c-0.103,0-0.17-0.034-0.17-0.17v-24.24 c0-0.102,0.067-0.136,0.17-0.136h1.326c0.102,0,0.136,0.034,0.136,0.136V55.932z M245.726,47.399 c1.462-1.326,6.901-6.527,7.888-7.445c0.067-0.102,0.136-0.136,0.271-0.136h1.598c0.136,0,0.169,0.136,0.068,0.204 c-0.918,0.952-6.731,6.188-7.921,7.343c-0.034,0.034-0.034,0.034,0,0.102c2.312,2.244,6.357,5.983,9.043,8.431 c0.102,0.102,0.034,0.204-0.068,0.204h-1.836c-0.17,0-0.237-0.034-0.306-0.136c-2.176-2.005-6.969-6.459-8.737-8.159 C245.59,47.637,245.59,47.569,245.726,47.399z"/><path d="M258.646,34.48c0-0.68,0.442-1.19,1.088-1.19c0.714,0,1.122,0.51,1.122,1.19c0,0.612-0.442,1.122-1.122,1.122 C259.02,35.602,258.646,35.126,258.646,34.48z M258.918,40.021c0-0.136,0.067-0.204,0.17-0.204h1.291 c0.103,0,0.171,0.034,0.171,0.17v15.944c0,0.136-0.034,0.17-0.171,0.17h-1.224c-0.17,0-0.237-0.034-0.237-0.204V40.021z"/><path d="M272.143,55.694c0,0.102,0,0.17-0.136,0.238c-0.681,0.374-1.564,0.51-2.278,0.51c-2.175,0-3.502-1.02-3.502-4.147V41.313 h-2.516c-0.17-0.034-0.203-0.102-0.203-0.238v-1.054c0-0.136,0.033-0.204,0.203-0.204h2.516c0-1.326,0.137-3.842,0.273-4.522 c0.034-0.102,0.068-0.17,0.135-0.204l1.258-0.238c0.103-0.034,0.204,0,0.204,0.068c-0.169,1.258-0.237,3.229-0.237,4.896h3.841 c0.137,0,0.204,0.068,0.204,0.204v1.088c0,0.136-0.067,0.17-0.204,0.204h-3.875v11.015c0,1.598,0.68,2.618,2.277,2.618 c0.544,0,1.156-0.068,1.87-0.374c0.102-0.034,0.17-0.034,0.17,0.102V55.694z"/></g></svg>