<svg xmlns="http://www.w3.org/2000/svg" xmlns:xlink="http://www.w3.org/1999/xlink" id="Layer_1" width="300" height="100" x="0" y="0" enable-background="new 0 0 300 100" version="1.1" viewBox="0 0 300 100" xml:space="preserve"><path fill="#FFF" d="M145.373,36.151h2.444c1.208,1.856,2.542,3.092,4.221,3.092c1.234,0,1.795-0.53,1.795-1.383	c0-1.061-0.767-1.473-3.504-2.179c-3.299-0.855-5.038-1.916-5.038-4.39c0-2.415,1.946-4.447,5.007-4.447	c1.798,0,3.003,0.677,3.859,1.709l0.56-1.651h2.298v4.713h-2.444c-1.062-1.649-2.297-2.798-3.771-2.798	c-1.15,0-1.738,0.53-1.738,1.324c0,1.004,0.794,1.387,3.418,2.063c3.004,0.795,5.153,1.768,5.153,4.509	c0,2.384-1.854,4.535-5.214,4.535c-2.152,0-3.335-0.884-4.22-1.887l-0.56,1.591h-2.267V36.151"/><path fill="#FFF" d="M82.898,38.388h2.82V24.134h-2.82v-2.562h18.225v7.038H98.56c-0.913-3.974-1.562-4.535-4.035-4.535h-4.007	v6.186h1.238c1.65,0,1.855-0.326,2.208-2.712h2.299v7.955h-2.299c-0.295-2.445-0.587-2.828-2.208-2.828h-1.238v5.712h3.212v2.564	H82.898V38.388"/><path fill="#FFF" d="M100.297,34.12c0-4.271,3.21-7.276,7.482-7.276c4.388,0,7.422,2.886,7.422,7.128	c0,4.272-3.181,7.276-7.452,7.276C103.36,41.248,100.297,38.388,100.297,34.12 M110.489,34.03c0-3.711-0.914-5.184-2.829-5.184	c-1.855,0-2.65,1.501-2.65,5.213c0,3.743,0.943,5.184,2.827,5.184C109.722,39.243,110.489,37.74,110.489,34.03z"/><path fill="#FFF" d="M116.143,38.479h2.032v-8.866h-2.032v-2.474h6.068v3.621c0.972-2.296,2.474-3.887,5.007-3.887	c2.974,0,4.212,2.003,4.212,4.861v6.745h1.973v2.473h-7.864v-2.473h1.562v-6.158c0-0.942-0.179-1.648-0.619-2.089	c-0.325-0.297-0.766-0.474-1.356-0.474c-1.384,0-2.65,1.387-2.65,3.359v5.362h1.531v2.473h-7.864V38.479"/><path fill="#FFF" d="M139.676,23.575v3.564h4.588v2.474h-4.588v6.95c0,1.268,0.442,1.974,1.443,1.974	c0.885,0,1.326-0.706,1.691-2.457l1.768,0.5c-0.513,3.223-1.956,4.668-4.725,4.668c-3.004,0-4.477-1.564-4.477-4.713v-6.922h-2.445	v-2.474h2.533v-3.064L139.676,23.575"/><path fill="#FFF" d="M162.758,23.133h-2.004v-2.534h6.334v9.279c0.855-1.796,2.297-3.034,4.387-3.034	c1.564,0,2.655,0.559,3.507,1.413c1.269,1.268,1.884,3.301,1.884,5.773c0,2.476-0.737,4.507-1.974,5.744	c-0.911,0.942-2.208,1.474-3.681,1.474c-2.443,0-3.916-1.151-4.83-2.918l-1.354,2.827h-2.27V23.133 M172.243,34.091	c0-2.946-0.769-4.507-2.479-4.507c-1.882,0-2.942,2.06-2.942,4.71c0,2.711,1.092,4.54,2.942,4.54	C171.475,38.834,172.243,37.212,172.243,34.091z"/><path fill="#FFF" d="M181.786,42.866c0,0.383-0.121,0.797-0.267,1.089c1.207-0.144,1.945-0.706,2.799-2.769	c-1.622-3.384-5.538-11.573-5.538-11.573h-1.826v-2.474h8.632v2.474h-2.093l3.092,7.215l2.798-7.215h-1.766v-2.474h6.038v2.474	h-1.681l-4.715,10.958c-1.411,3.327-2.973,5.505-6.18,5.505c-2.507,0-3.801-1.294-3.801-3.061c0-1.383,0.911-2.476,2.266-2.476	C181.046,40.539,181.786,41.718,181.786,42.866"/><path fill="#BDDEA8" d="M62.416,49.296c1.413,2.46,3.974,4.015,6.906,4.015c4.458,0,8.031-3.745,8.031-8.652	c0-4.908-3.573-8.321-8.031-8.321c-3.984,0-7.042,2.155-9.699,6.008c-0.258-4.198-3.478-6.069-7.879-5.842	c1.08-1.693,1.491-3.404,1.491-5.44c0-5.663-5.316-11.88-15.167-11.88c-10.723,0-17.522,6.666-17.522,13.588	c0,4.67,1.635,7.506,4.93,11.061c-8.488,2.914-13.124,7.948-13.124,14.685c0,8.448,7.925,14.873,17.572,14.873	c6.649,0,12.156-2.302,16.662-7.261c5.203,5.525,8.748,7.261,13.519,7.261c6.911,0,12.603-5.835,12.8-15.166l-1.032-0.325	c-1.594,2.849-3.558,4.724-6.957,4.724c-3.117,0-5.862-1.913-9.941-6.638C57.468,52.803,59.937,50.687,62.416,49.296 M50.508,38.113	c3.703,3.728,2.963,7.483-0.192,12.762c-1.969-2.413-4.01-4.756-6.536-7.361C46.879,41.465,49.044,39.748,50.508,38.113z M37.719,25.043c2.702,0,4.62,2.515,4.62,6.2c0,2.594-1.054,5.289-2.875,8.01c-3.651-3.499-6.103-5.821-6.103-9.449	C33.361,27.11,35.19,25.043,37.719,25.043z M27.258,54.636c0-2.509,0.874-4.665,2.545-6.526c2.908,2.876,7.478,7.611,11.956,13.187	c-1.804,1.413-3.662,2.009-6.071,2.009C30.792,63.306,27.258,59.556,27.258,54.636z"/><path fill="#FFF" d="M85.4,85.378v-3.01h-0.725v-1.127H85.4v-1.569h1.311v1.569h1.538v1.127h-1.538v2.805	c0,0.509,0.259,0.715,0.704,0.715c0.292,0,0.552-0.064,0.812-0.194v1.07c-0.325,0.186-0.682,0.294-1.181,0.294	C86.083,87.058,85.4,86.634,85.4,85.378"/><path fill="#FFF" d="M94.066,81.241h1.364l-2.274,5.871c-0.455,1.18-0.963,1.611-1.885,1.611c-0.541,0-0.952-0.128-1.353-0.355	l0.444-0.965c0.238,0.131,0.498,0.217,0.769,0.217c0.368,0,0.596-0.163,0.812-0.649l-2.383-5.729h1.408l1.604,4.246L94.066,81.241"/><path fill="#FFF" d="M97.014,81.241h1.321v0.954c0.423-0.597,1.018-1.074,1.949-1.074c1.343,0,2.654,1.062,2.654,2.968v0.022	c0,1.895-1.3,2.968-2.654,2.968c-0.953,0-1.548-0.477-1.949-1.008v2.622h-1.321V81.241 M101.605,84.111v-0.022	c0-1.104-0.757-1.829-1.635-1.829c-0.888,0-1.668,0.736-1.668,1.829v0.022c0,1.095,0.78,1.83,1.668,1.83	C100.87,85.941,101.605,85.237,101.605,84.111z"/><path fill="#FFF" d="M104.5,84.133v-0.021c0-1.637,1.3-2.99,3.054-2.99c1.755,0,3.043,1.332,3.043,2.968v0.022	c0,1.625-1.299,2.979-3.064,2.979C105.789,87.09,104.5,85.758,104.5,84.133 M109.287,84.133v-0.021c0-1.006-0.726-1.84-1.754-1.84	c-1.051,0-1.723,0.822-1.723,1.817v0.022c0,0.997,0.726,1.83,1.744,1.83C108.616,85.941,109.287,85.119,109.287,84.133z"/><path fill="#FFF" d="M112.441,88.031l0.486-0.984c0.618,0.378,1.257,0.595,2.037,0.595c1.17,0,1.808-0.595,1.808-1.742v-0.435	c-0.476,0.606-1.072,1.041-2.014,1.041c-1.354,0-2.6-0.998-2.6-2.675v-0.022c0-1.69,1.268-2.688,2.6-2.688	c0.964,0,1.559,0.446,2.004,0.976v-0.855h1.31v4.55c0,0.962-0.249,1.677-0.726,2.155c-0.519,0.519-1.321,0.768-2.35,0.768	C114.054,88.714,113.177,88.476,112.441,88.031 M116.783,83.82v-0.022c0-0.932-0.769-1.56-1.678-1.56	c-0.91,0-1.625,0.617-1.625,1.56v0.022c0,0.93,0.726,1.568,1.625,1.568C116.014,85.389,116.783,84.75,116.783,83.82z"/><path fill="#FFF" d="M120.23,81.241h1.321v1.288c0.358-0.854,1.018-1.44,2.025-1.397v1.387H123.5	c-1.147,0-1.949,0.747-1.949,2.265v2.177h-1.321V81.241"/><path fill="#FFF" d="M124.574,85.313v-0.022c0-1.234,0.974-1.84,2.371-1.84c0.639,0,1.094,0.097,1.538,0.238v-0.142	c0-0.812-0.498-1.245-1.418-1.245c-0.64,0-1.116,0.142-1.636,0.357l-0.358-1.028c0.639-0.283,1.257-0.467,2.167-0.467	c0.856,0,1.494,0.228,1.895,0.639c0.422,0.412,0.617,1.02,0.617,1.767v3.39h-1.277v-0.715c-0.39,0.465-0.987,0.834-1.863,0.834	C125.537,87.079,124.574,86.462,124.574,85.313 M128.504,84.902v-0.39c-0.335-0.13-0.779-0.228-1.299-0.228	c-0.844,0-1.343,0.355-1.343,0.952v0.021c0,0.553,0.488,0.867,1.116,0.867C127.844,86.126,128.504,85.628,128.504,84.902z"/><path fill="#FFF" d="M131.832,81.241h1.321v0.954c0.422-0.597,1.018-1.074,1.949-1.074c1.343,0,2.654,1.062,2.654,2.968v0.022	c0,1.895-1.3,2.968-2.654,2.968c-0.953,0-1.548-0.477-1.949-1.008v2.622h-1.321V81.241 M136.423,84.111v-0.022	c0-1.104-0.757-1.829-1.635-1.829c-0.888,0-1.668,0.736-1.668,1.829v0.022c0,1.095,0.78,1.83,1.668,1.83	C135.688,85.941,136.423,85.237,136.423,84.111z"/><path fill="#FFF" d="M139.621,79.053h1.321v3.065c0.369-0.53,0.899-0.997,1.787-0.997c1.289,0,2.036,0.867,2.036,2.188v3.651	h-1.31v-3.249c0-0.888-0.444-1.396-1.224-1.396c-0.758,0-1.289,0.529-1.289,1.419v3.227h-1.321V79.053"/><path fill="#FFF" d="M150.67,81.241h1.365l-2.275,5.871c-0.455,1.18-0.963,1.611-1.884,1.611c-0.541,0-0.953-0.128-1.354-0.355	l0.444-0.965c0.238,0.131,0.498,0.217,0.769,0.217c0.369,0,0.596-0.163,0.812-0.649l-2.383-5.729h1.408l1.603,4.246L150.67,81.241"/><rect width="1.44" height="1.495" x="153.162" y="85.465" fill="#FFF"/><path fill="#FFF" d="M156.532,84.133v-0.021c0-1.625,1.256-2.99,2.979-2.99c1.071,0,1.743,0.402,2.286,0.987l-0.824,0.877	c-0.401-0.412-0.822-0.714-1.473-0.714c-0.954,0-1.658,0.822-1.658,1.817v0.022c0,1.019,0.704,1.83,1.712,1.83	c0.617,0,1.062-0.281,1.484-0.704l0.791,0.779c-0.564,0.628-1.226,1.073-2.34,1.073C157.788,87.09,156.532,85.758,156.532,84.133"/><path fill="#FFF" d="M163.183,84.133v-0.021c0-1.637,1.3-2.99,3.056-2.99c1.754,0,3.042,1.332,3.042,2.968v0.022	c0,1.625-1.299,2.979-3.064,2.979C164.471,87.09,163.183,85.758,163.183,84.133 M167.97,84.133v-0.021	c0-1.006-0.726-1.84-1.754-1.84c-1.051,0-1.723,0.822-1.723,1.817v0.022c0,0.997,0.726,1.83,1.745,1.83	C167.298,85.941,167.97,85.119,167.97,84.133z"/><path fill="#FFF" d="M170.907,81.241h1.32v0.867c0.368-0.51,0.867-0.987,1.743-0.987c0.824,0,1.408,0.402,1.712,1.009	c0.454-0.606,1.062-1.009,1.929-1.009c1.245,0,2.003,0.791,2.003,2.188v3.651h-1.311v-3.249c0-0.91-0.422-1.396-1.157-1.396	c-0.716,0-1.225,0.497-1.225,1.419v3.227h-1.312V83.7c0-0.889-0.434-1.386-1.158-1.386c-0.727,0-1.225,0.541-1.225,1.419v3.227	h-1.32V81.241"/><polyline fill="#FFF" points="82.898 67.702 86.31 67.702 86.31 49.351 82.898 49.351 82.898 46.055 95.865 46.055 95.865 49.351 92.49 49.351 92.49 56.48 102.236 56.48 102.236 49.351 98.822 49.351 98.822 46.055 111.828 46.055 111.828 49.351 108.417 49.351 108.417 67.702 111.828 67.702 111.828 71.003 98.822 71.003 98.822 67.702 102.236 67.702 102.236 59.664 92.49 59.664 92.49 67.702 95.865 67.702 95.865 71.003 82.898 71.003 82.898 67.702"/><path fill="#FFF" d="M112.056,62.205c0-5.498,4.133-9.364,9.63-9.364c5.65,0,9.556,3.716,9.556,9.173	c0,5.499-4.096,9.367-9.592,9.367C116,71.381,112.056,67.702,112.056,62.205 M125.174,62.093c0-4.777-1.174-6.674-3.638-6.674	c-2.389,0-3.413,1.933-3.413,6.71c0,4.814,1.214,6.671,3.639,6.671C124.19,68.8,125.174,66.869,125.174,62.093z"/><path fill="#FFF" d="M138.37,62.852c0.228,4.132,1.895,5.496,4.74,5.496c2.084,0,3.45-0.872,4.245-3.107h2.92	c-0.684,3.712-3.186,6.141-8.153,6.141c-5.914,0-9.516-3.639-9.516-9.1c0-5.384,3.98-9.44,9.327-9.44	c5.991,0,8.797,4.246,8.532,10.011H138.37 M138.407,60.461h6.635c-0.188-3.602-1.174-5.042-3.222-5.042	C139.849,55.419,138.635,56.669,138.407,60.461z"/><path fill="#FFF" d="M180.072,62.852c0.228,4.132,1.895,5.496,4.742,5.496c2.083,0,3.448-0.872,4.243-3.107h2.921	c-0.683,3.712-3.186,6.141-8.151,6.141c-5.918,0-9.52-3.639-9.52-9.1c0-5.384,3.981-9.44,9.329-9.44	c5.989,0,8.796,4.246,8.532,10.011H180.072 M180.11,60.461h6.637c-0.192-3.602-1.179-5.042-3.224-5.042	C181.551,55.419,180.338,56.669,180.11,60.461z"/><path fill="#FFF" d="M193.039,67.817h2.615V56.405h-2.615v-3.187h7.809v4.588c1.063-3.3,3.112-4.929,5.537-4.929	c2.2,0,3.602,1.629,3.602,3.487c0,1.896-1.288,3.261-2.953,3.261c-1.671,0-2.959-0.948-2.959-2.691c0-0.075,0.036-0.189,0.036-0.304	c-0.985,0.076-2.273,1.213-2.919,3.413v7.773h3.299v3.186h-11.451V67.817"/><path fill="#FFF" d="M236.487,56.291v3.185h-2.354c-1.251,2.275-2.768,4.398-4.359,6.065c1.287,1.782,1.857,2.201,2.767,2.201	c0.95,0,1.478-0.57,2.047-2.354l2.086,0.646c-0.722,3.106-2.312,5.574-5.647,5.574c-2.275,0-3.565-0.759-5.423-3.071	c-2.009,2.045-4.325,3.071-7.129,3.071c-5.006,0-7.927-2.882-7.927-6.6c0-3.639,2.581-5.534,5.84-6.786	c-1.74-1.781-2.614-3.146-2.614-5.233c0-3.297,2.993-6.14,7.505-6.14c4.325,0,6.559,2.653,6.559,5.193	c0,2.881-2.161,4.248-4.926,5.461c2.123,2.045,3.717,3.867,5.229,6.028c1.064-1.251,2.05-2.689,2.771-4.097h-2.617v-3.145H236.487 M224.046,66.755c-1.857-2.653-3.979-5.004-6.068-7.015c-1.25,0.986-1.931,2.312-1.931,4.21c0,2.501,1.591,4.17,4.208,4.17	C221.505,68.12,222.756,67.702,224.046,66.755z M221.353,56.062c1.481-1.062,2.203-2.312,2.203-3.904	c0-1.554-0.76-2.843-2.507-2.843c-1.324,0-2.347,0.949-2.347,2.35C218.702,53.068,219.535,54.241,221.353,56.062z"/><path fill="#FFF" d="M238.662,58.678c0-7.772,5.537-13.233,12.057-13.233c3.188,0,5.574,1.101,7.091,2.959l0.797-2.882h3.413	v9.934h-3.756c-1.516-4.589-3.639-6.9-6.788-6.9c-3.56,0-6.062,2.615-6.062,9.742c0,6.828,2.615,9.744,6.901,9.744	c3.751,0,5.911-2.841,6.558-7.011h3.676c-0.644,6.444-4.357,10.578-11.107,10.578C243.666,71.609,238.662,66.379,238.662,58.678"/><path fill="#FFF" d="M263.875,62.205c0-5.498,4.133-9.364,9.63-9.364c5.648,0,9.554,3.716,9.554,9.173	c0,5.499-4.096,9.367-9.592,9.367C267.816,71.381,263.875,67.702,263.875,62.205 M276.992,62.093c0-4.777-1.174-6.674-3.64-6.674	c-2.387,0-3.413,1.933-3.413,6.71c0,4.814,1.216,6.671,3.64,6.671C276.008,68.8,276.992,66.869,276.992,62.093z"/><path fill="#FFF" d="M283.551,68.31c0-1.896,1.479-3.375,3.411-3.375c1.897,0,3.376,1.444,3.376,3.3	c0,1.896-1.479,3.413-3.412,3.413C285.029,71.647,283.551,70.167,283.551,68.31"/><path fill="#FFF" d="M151.45,67.817h2.579V56.405h-3.223v-3.187h3.223v-0.15c0-5.841,4.111-8.495,8.773-8.495	c1.46,0,2.853,0.298,3.831,0.742l4.716-0.837v23.339h2.885v3.186h-10.596v-3.186h2.273V56.405h-6.445v11.412h2.274v3.186H151.45	V67.817 M159.337,53.219h6.575v-2.161c-1.591-0.036-2.653-0.91-2.653-2.579c0-0.53,0.19-1.214,0.492-1.554	c-0.262-0.114-0.642-0.228-1.212-0.228c-1.897,0-3.202,0.949-3.202,5.27V53.219z"/></svg>